<svg width="800px" height="800px" viewBox="0 0 24 24" fill="none" xmlns="http://www.w3.org/2000/svg">
<path fill-rule="evenodd" clip-rule="evenodd" d="M12.8903 3.70589C13.2265 2.61318 14.7733 2.61317 15.1095 3.70589L16.663 8.75461C16.7552 9.05418 16.9825 9.29321 17.277 9.40032L21.3417 10.8784C22.3891 11.2593 22.3891 12.7407 21.3417 13.1216L17.277 14.5996C16.9825 14.7067 16.7552 14.9458 16.663 15.2453L15.1095 20.2941C14.7733 21.3868 13.2265 21.3868 12.8903 20.2941L11.3368 15.2453C11.2447 14.9458 11.0174 14.7067 10.7228 14.5996L6.65816 13.1216C5.61069 12.7407 5.61069 11.2593 6.65816 10.8784L10.7228 9.40032C11.0174 9.29321 11.2447 9.05418 11.3368 8.75461L12.8903 3.70589Z" fill="#323232" transform="translate(-1, 0)"/>
</svg>