<svg xmlns="http://www.w3.org/2000/svg" viewBox="0 0 512 512">
  <path xmlns="http://www.w3.org/2000/svg" fill-rule="evenodd" clip-rule="evenodd" d="M 228.428 78.935 C 235.589 55.661 268.536 55.661 275.697 78.935 L 308.786 186.473 C 310.75 192.854 315.592 197.945 321.865 200.227 L 408.443 231.71 C 430.752 239.823 430.752 271.377 408.443 279.49 L 321.865 310.971 C 315.592 313.253 310.75 318.346 308.786 324.725 L 275.697 432.264 C 268.536 455.539 235.589 455.539 228.428 432.264 L 195.338 324.725 C 193.377 318.346 188.535 313.253 182.26 310.971 L 95.683 279.49 C 73.372 271.377 73.372 239.823 95.683 231.71 L 182.26 200.227 C 188.535 197.945 193.377 192.854 195.338 186.473 L 228.428 78.935 Z"/>
</svg>
